# AST/ASF file generated using VICON BodyLanguage
# -----------------------------------------------
:version 1.10
:name VICON
:units
  mass 1.0
  length 0.45
  angle deg
:documentation
   .ast/.asf automatically generated from VICON data using
   VICON BodyBuilder and BodyLanguage model FoxedUp or BRILLIANT.MOD
:root
   order TX TY TZ RX RY RZ
   axis XYZ
   position 0 0 0  
   orientation 0 0 0 
:bonedata
  begin
     id 1 
     name lhipjoint
     direction 0.690799 -0.707083 0.151096 
     length 2.54797 
     axis 0 0 0  XYZ
  end
  begin
     id 2 
     name lfemur
     direction 0.34202 -0.939693 0  
     length 7.21646  
     axis 0 0 20  XYZ
    dof rx ry rz
    limits (-160.0 20.0)
           (-70.0 70.0)
           (-60.0 70.0)
  end
  begin
     id 3 
     name ltibia
     direction 0.34202 -0.939693 0   
     length 8.16759   
     axis 0 0 20   XYZ
    dof rx
    limits (-10.0 170.0)
  end
  begin
     id 4 
     name lfoot
     direction 0.0487203 -0.133858 0.989802   
     length 1.93375   
     axis -90 7.62852e-016 20   XYZ
    dof rx rz
    limits (-45.0 90.0)
           (-70.0 20.0)
  end
  begin
     id 5 
     name ltoes
     direction 1.53453e-011 -4.21783e-011 1   
     length 0.979747   
     axis -90 7.62852e-016 20   XYZ
    dof rx
    limits (-90.0 20.0)
  end
  begin
     id 6 
     name rhipjoint
     direction -0.694693 -0.703425 0.150315   
     length 2.56122  
     axis 0 0 0  XYZ 
  end
  begin
     id 7 
     name rfemur
     direction -0.34202 -0.939693 0   
     length 7.36786   
     axis 0 0 -20   XYZ
    dof rx ry rz
    limits (-160.0 20.0)
           (-70.0 70.0)
           (-70.0 60.0)
  end
  begin
     id 8 
     name rtibia
     direction -0.34202 -0.939693 0   
     length 8.07288   
     axis 0 0 -20   XYZ
    dof rx
    limits (-10.0 170.0)
 end
 begin
     id 9 
     name rfoot
     direction -0.0428397 -0.117701 0.992125   
     length 1.88295  
     axis -90 -7.62852e-016 -20   XYZ
    dof rx rz
    limits (-45.0 90.0)
           (-20.0 70.0)
  end
  begin
     id 10 
     name rtoes
     direction -1.53456e-011 -4.2187e-011 1   
     length 0.955578   
     axis -90 -7.62852e-016 -20   XYZ
    dof rx
    limits (-90.0 20.0)
  end
  begin
     id 11 
     name lowerback
     direction 0.0288145 0.999398 -0.0193241   
     length 1.92149   
     axis 0 0 0   XYZ
    dof rx ry rz
    limits (-20.0 45.0)
           (-30.0 30.0)
           (-30.0 30.0)
  end
  begin
     id 12 
     name upperback
     direction 0.0233784 0.998099 0.0570278   
     length 1.90435   
     axis 0 0 0   XYZ
    dof rx ry rz
    limits (-20.0 45.0)
           (-30.0 30.0)
           (-30.0 30.0)
  end
  begin
     id 13 
     name thorax
     direction 0.0096694 0.997833 0.0650817   
     length 1.9111   
     axis 0 0 0   XYZ
    dof rx ry rz
    limits (-20.0 45.0)
           (-30.0 30.0)
           (-30.0 30.0)
  end
  begin
     id 14 
     name lowerneck
     direction 0.00516803 0.999916 0.0118722   
     length 1.74664   
     axis 0 0 0   XYZ
    dof rx ry rz
    limits (-20.0 45.0)
           (-30.0 30.0)
           (-30.0 30.0)
  end
  begin
     id 15 
     name upperneck
     direction -0.0510851 0.996117 -0.071696   
     length 1.68498   
     axis 0 0 0   XYZ
    dof rx ry rz
    limits (-20.0 45.0)
           (-30.0 30.0)
           (-30.0 30.0)
  end
  begin
     id 16
     name head
     direction -0.019188 0.999436 -0.0275702  
     length 1.83483  
     axis 0 0 0   XYZ
    dof rx ry rz
    limits (-20.0 45.0)
           (-30.0 30.0)
           (-30.0 30.0)
  end
  begin
     id 17 
     name lclavicle
     direction 0.967006 0.248456 -0.0562957  
     length 3.39395  
     axis 0 0 0   XYZ
    dof ry rz
    limits (-20.0 10.0)
           (0.0 20.0)
  end
  begin
     id 18 
     name lhumerus
     direction 1 -4.48962e-011 -5.62711e-019   
     length 5.24318   
     axis 180 -30 -90   XYZ
    dof rx ry rz
    limits (-60.0 90.0)
           (-90.0 90.0)
           (-90.0 90.0)
  end
  begin
     id 19
     name lradius
     direction 1 -4.48966e-011 7.90625e-027   
     length 2.98999   
     axis 180 -30 -90   XYZ
    dof rx
    limits (-10.0 170.0)
  end
  begin
     id 20
     name lwrist
     direction 1 -4.48959e-011 1.61068e-026   
     length 1.49499   
     axis -9.31229e-015 90 90   XYZ
    dof ry
    limits (-180.0 0.0)
 end
  begin
     id 21 
     name lhand
     direction 1 -4.49017e-011 3.22136e-026   
     length 0.726745   
     axis -2.0555e-014 90 90   XYZ
    dof rx rz
    limits (-90.0 90.0)
           (-45.0 45.0)
  end
  begin
     id 22 
     name lfingers
     direction 1 -4.4898e-011 6.44272e-026   
     length 0.58592   
     axis -4.11101e-014 90 90   XYZ
    dof rx
    limits (0.0 90.0)
  end
  begin
     id 23
     name lthumb
     direction 0.707107 -6.34922e-011 0.707107   
     length 0.841268   
     axis -90 45 2.85299e-015   XYZ
    dof rx rz
    limits (-45.0 45.0)
           (-45.0 45.0)
  end
  begin
     id 24 
     name rclavicle
     direction -0.972232 0.230238 0.0419005   
     length 3.40416  
     axis 0 0 0   XYZ 
    dof ry rz
    limits (-10.0 20.0)
           (-20.0 0.0)
  end
  begin
     id 25 
     name rhumerus
     direction -1 -4.48976e-011 2.48487e-027  
     length 5.37045   
     axis 180 30 90   XYZ
    dof rx ry rz
    limits (-90.0 60.0)
           (-90.0 90.0)
           (-90.0 90.0)
  end
  begin
     id 26 
     name rradius
     direction -1 -4.48942e-011 7.87951e-027   
     length 2.92792   
     axis 180 30 90   XYZ
    dof rx
    limits (-10.0 170.0)
  end
  begin
     id 27 
     name rwrist
     direction -1 -4.48969e-011 1.61068e-026   
     length 1.46396   
     axis -9.31229e-015 -90 -90   XYZ
    dof ry
    limits (-180.0 0.0)
  end
  begin
     id 28
     name rhand
     direction -1 -4.49043e-011 3.22136e-026   
     length 0.784497   
     axis -2.0555e-014 -90 -90   XYZ
    dof rx rz
    limits (-90.0 90.0)
           (-45.0 45.0)
  end
  begin
     id 29
     name rfingers
     direction -1 -4.48823e-011 6.44272e-026   
     length 0.632482   
     axis -4.11101e-014 -90 -90   XYZ
    dof rx
    limits (0.0 90.0)
  end
  begin
     id 30
     name rthumb
     direction -0.707107 -6.34923e-011 0.707107   
     length 0.908121   
     axis -90 -45 -2.85299e-015   XYZ
    dof rx rz
    limits (-45.0 45.0)
           (-45.0 45.0)
  end
:hierarchy
  begin
    root lhipjoint rhipjoint lowerback
    lhipjoint lfemur
    lfemur ltibia
    ltibia lfoot
    lfoot ltoes
    rhipjoint rfemur
    rfemur rtibia
    rtibia rfoot
    rfoot rtoes
    lowerback upperback
    upperback thorax
    thorax lowerneck lclavicle rclavicle
    lowerneck upperneck
    upperneck head
    lclavicle lhumerus
    lhumerus lradius
    lradius lwrist
    lwrist lhand lthumb
    lhand lfingers
    rclavicle rhumerus
    rhumerus rradius
    rradius rwrist
    rwrist rhand rthumb
    rhand rfingers
  end

#!OML:ASF E:\Style6\Style6.ASF
:FULLY-SPECIFIED
:DEGREES
116
root 0.722665 15.5052 -1.16083 19.234 -4.49944 6.63747
lowerback 22.0284 -0.858186 7.03433
upperback 1.59492 1.78512 10.4625
thorax -10.8164 0.804623 7.26508
lowerneck 5.72929 -0.110888 5.70905
upperneck -8.94167 -2.77527 -30.6854
head -4.15445 -0.149014 -10.9541
rclavicle -7.95139e-015 -5.725e-014
rhumerus -1.42759 -8.27599 -53.5212
rradius 70.1129
rwrist 21.5162
rhand -4.06849 13.9012
rfingers 7.12502
rthumb 21.6882 -14.9039
lclavicle -7.95139e-015 -5.725e-014
lhumerus -26.9227 -6.55762 64.503
lradius 81.5691
lwrist 0.367719
lhand -15.1399 17.3817
lfingers 7.12502
lthumb 11.0299 47.0719
rfemur -65.7187 -20.336 18.4256
rtibia 72.3405
rfoot -19.113 10.2881
rtoes -5.27893
lfemur -61.399 14.0636 -34.9856
ltibia 68.2884
lfoot -21.3925 -4.43201
ltoes -7.34323
117
root 0.718409 15.5064 -1.16176 19.1955 -4.46044 6.5502
lowerback 21.9409 -0.889924 7.11729
upperback 1.64277 1.73244 10.3619
thorax -10.7014 0.771828 7.10663
lowerneck 5.78275 -0.0873385 5.78384
upperneck -9.07086 -2.73292 -30.4102
head -4.1873 -0.127976 -10.8678
rclavicle 6.52014e-014 -3.18055e-015
rhumerus -1.54509 -8.16031 -53.9387
rradius 70.1659
rwrist 21.1615
rhand -4.67836 14.1058
rfingers 7.12502
rthumb 21.1024 -14.7659
lclavicle 6.52014e-014 -3.18055e-015
lhumerus -26.4617 -6.77096 64.8892
lradius 81.1299
lwrist -0.00601982
lhand -15.8773 17.0273
lfingers 7.12502
lthumb 10.3185 46.7541
rfemur -65.6441 -20.3228 18.528
rtibia 72.3241
rfoot -19.1547 10.1874
rtoes -5.5672
lfemur -61.3642 14.0528 -34.8467
ltibia 68.295
lfoot -21.3991 -4.31059
ltoes -7.97955
118
root 0.713338 15.5077 -1.16187 19.1092 -4.46736 6.51493
lowerback 21.9373 -0.88527 7.01601
upperback 1.70859 1.69989 10.3258
thorax -10.6223 0.760107 7.12765
lowerneck 5.67019 -0.0611316 5.75463
upperneck -9.09806 -2.6706 -30.1508
head -4.15456 -0.114198 -10.7615
rclavicle 7.95139e-015 -7.63333e-014
rhumerus -1.56047 -8.00819 -54.3015
rradius 70.1946
rwrist 20.7899
rhand -5.79903 14.414
rfingers 7.12502
rthumb 20.0255 -14.5741
lclavicle 7.95139e-015 -7.63333e-014
lhumerus -26.0102 -6.88844 65.3857
lradius 80.7027
lwrist -0.351799
lhand -16.4946 16.6784
lfingers 7.12502
lthumb 9.72294 46.434
rfemur -65.5322 -20.2803 18.5428
rtibia 72.3192
rfoot -19.2186 10.0773
rtoes -6.07661
lfemur -61.2718 14.0945 -34.763
ltibia 68.3124
lfoot -21.408 -4.23472
ltoes -8.26124
119
root 0.707035 15.5071 -1.16323 19.0661 -4.46178 6.49195
lowerback 21.8988 -0.868952 6.91964
upperback 1.75375 1.68177 10.2877
thorax -10.5485 0.754887 7.13877
lowerneck 5.52952 -0.0682928 5.7112
upperneck -9.08222 -2.64548 -29.8705
head -4.11146 -0.12478 -10.6408
rclavicle -9.54166e-015 -6.67916e-014
rhumerus -1.61751 -7.97085 -54.6871
rradius 70.3019
rwrist 20.5335
rhand -6.73871 14.6936
rfingers 7.12502
rthumb 19.1221 -14.3863
lclavicle -9.54166e-015 -6.67916e-014
lhumerus -25.4643 -7.07456 65.8696
lradius 80.1999
lwrist -0.670825
lhand -17.2387 16.4615
lfingers 7.12502
lthumb 9.00498 46.2493
rfemur -65.4859 -20.2311 18.5551
rtibia 72.3388
rfoot -19.2415 10.0932
rtoes -5.94458
lfemur -61.2459 14.1268 -34.7082
ltibia 68.348
lfoot -21.4253 -4.1188
ltoes -9.14439
120
root 0.70125 15.5031 -1.16608 19.0385 -4.43301 6.41245
lowerback 21.8135 -0.867351 6.9328
upperback 1.7828 1.6642 10.2292
thorax -10.4636 0.743846 7.06141
lowerneck 5.54753 -0.0881974 5.70948
upperneck -9.08992 -2.64689 -29.6139
head -4.11221 -0.134584 -10.5403
rclavicle 1.27222e-014 9.54166e-015
rhumerus -1.72289 -7.94555 -55.1468
rradius 70.3505
rwrist 20.2361
rhand -7.35164 14.8242
rfingers 7.12502
rthumb 18.5326 -14.313
lclavicle 1.27222e-014 9.54166e-015
lhumerus -24.9135 -7.25652 66.3285
lradius 79.6121
lwrist -1.05053
lhand -17.8497 16.0155
lfingers 7.12502
lthumb 8.41535 45.8278
rfemur -65.4634 -20.1698 18.6422
rtibia 72.3704
rfoot -19.3419 9.8972
rtoes -6.81582
lfemur -61.2673 14.1197 -34.5751
ltibia 68.4004
lfoot -21.3928 -4.07935
ltoes -9.45732
121
root 0.696953 15.4977 -1.16775 18.9662 -4.47484 6.47582
lowerback 21.7575 -0.861783 6.81386
upperback 1.81967 1.61511 10.0992
thorax -10.3839 0.722175 6.9867
lowerneck 5.61809 -0.0815188 5.7173
upperneck -9.10179 -2.60594 -29.3219
head -4.11531 -0.121004 -10.4314
rclavicle -4.29375e-014 -1.43125e-013
rhumerus -1.81089 -7.82732 -55.6502
rradius 70.3232
rwrist 19.8032
rhand -7.90031 14.8117
rfingers 7.12502
rthumb 18.0048 -14.3749
lclavicle -4.29375e-014 -1.43125e-013
lhumerus -24.3957 -7.4084 66.7932
lradius 79.0323
lwrist -1.42313
lhand -18.2537 15.6129
lfingers 7.12502
lthumb 8.02545 45.4405
rfemur -65.4306 -20.1296 18.5484
rtibia 72.423
rfoot -19.3706 9.90981
rtoes -6.6403
lfemur -61.2081 14.1113 -34.5956
ltibia 68.4412
lfoot -21.3985 -4.10217
ltoes -9.09409
122
root 0.691495 15.4936 -1.16834 18.8986 -4.49691 6.53172
lowerback 21.7025 -0.883759 6.66897
upperback 1.8602 1.52656 9.99142
thorax -10.2995 0.683948 6.96565
lowerneck 5.67569 -0.0383415 5.65523
upperneck -9.15275 -2.52657 -29.0117
head -4.11925 -0.0848436 -10.3056
rclavicle -1.59028e-014 7.31528e-014
rhumerus -1.83671 -7.66597 -56.2527
rradius 70.3063
rwrist 19.3241
rhand -8.45685 14.6459
rfingers 7.12502
rthumb 17.4692 -14.5892
lclavicle -1.59028e-014 7.31528e-014
lhumerus -23.9642 -7.53591 67.3299
lradius 78.5409
lwrist -1.5593
lhand -18.8393 15.5501
lfingers 7.12502
lthumb 7.46029 45.3986
rfemur -65.3748 -20.081 18.4525
rtibia 72.4666
rfoot -19.3296 10.0535
rtoes -5.73344
lfemur -61.1428 14.1049 -34.5996
ltibia 68.4894
lfoot -21.4254 -4.17423
ltoes -8.22326
